<svg width="14" height="14" viewBox="0 0 14 14" fill="none" xmlns="http://www.w3.org/2000/svg">
<g clip-path="url(#clip0_169_209)">
<path fill-rule="evenodd" clip-rule="evenodd" d="M13.6551 1.33493C13.7863 1.20365 13.8601 1.02559 13.8601 0.839928C13.8601 0.654267 13.7863 0.47621 13.6551 0.344928C13.5238 0.213646 13.3457 0.139893 13.1601 0.139893C12.9744 0.139893 12.7963 0.213646 12.6651 0.344928L7.00005 6.00993L1.33505 0.344928C1.20377 0.213646 1.02571 0.139893 0.84005 0.139893C0.654389 0.139893 0.476333 0.213646 0.34505 0.344928C0.213768 0.47621 0.140015 0.654267 0.140015 0.839928C0.140015 1.02559 0.213768 1.20365 0.34505 1.33493L6.01005 6.99993L0.34505 12.6649C0.213768 12.7962 0.140015 12.9743 0.140015 13.1599C0.140015 13.3456 0.213768 13.5236 0.34505 13.6549C0.476333 13.7862 0.654389 13.86 0.84005 13.86C1.02571 13.86 1.20377 13.7862 1.33505 13.6549L7.00005 7.98993L12.6651 13.6549C12.7963 13.7862 12.9744 13.86 13.1601 13.86C13.3457 13.86 13.5238 13.7862 13.6551 13.6549C13.7863 13.5236 13.8601 13.3456 13.8601 13.1599C13.8601 12.9743 13.7863 12.7962 13.6551 12.6649L7.99005 6.99993L13.6551 1.33493Z" fill="#121417"/>
</g>
<defs>
<clipPath id="clip0_169_209">
<rect width="14" height="14" fill="white"/>
</clipPath>
</defs>
</svg>
